<svg width="63" height="60" viewBox="0 0 63 60" fill="none" xmlns="http://www.w3.org/2000/svg">
<path fill-rule="evenodd" clip-rule="evenodd" d="M8.23593 27.2229L8.09526 32.999L7.18167 32.9787L7.19733 32.3329L0.929255 32.1933L0.913595 32.8391L0 32.8187L0.0623943 30.2592L0.975986 30.2796L0.952584 31.2365L7.22066 31.3761L7.30013 28.1133L6.43268 28.094L6.45488 27.1832L8.23593 27.2229ZM9.37012 23.1714L8.36839 25.5306L7.52685 25.1769L7.8969 24.3055C6.93286 23.324 5.98181 22.346 5.04425 21.3715C4.10645 20.397 3.15564 19.419 2.19152 18.4376C3.57083 18.4412 4.93839 18.4379 6.29421 18.4277C7.65019 18.4175 9.01775 18.4142 10.397 18.418L10.767 17.5466L11.6085 17.9003L10.6067 20.2596L9.76524 19.9058L10.018 19.3107C9.5996 19.3101 9.18582 19.3094 8.77608 19.3083C8.36651 19.3074 7.95258 19.3065 7.53437 19.306L6.54153 21.644L8.27135 23.4234L8.52865 22.8177L9.37012 23.1714ZM4.45321 19.5262C4.67606 19.7702 4.91356 20.0139 5.16556 20.2578C5.41779 20.5015 5.64699 20.7252 5.85356 20.9289L6.53939 19.3135L4.54349 19.3137L4.14685 19.2722C4.24838 19.3482 4.32041 19.4055 4.36251 19.4443C4.40468 19.4828 4.43502 19.51 4.45321 19.5262ZM14.6732 14.5964L12.8441 16.7129L12.1523 16.1189L12.7493 15.4281L8.00251 11.3538L7.40546 12.0447L6.71371 11.4508L8.54257 9.33446L9.23439 9.92824L8.62984 10.628L13.3767 14.7022L13.9812 14.0026L14.6732 14.5964ZM20.5491 10.0844L15.7691 13.3609L15.2523 12.6105L15.7867 12.2442L12.2412 7.09598L11.7068 7.46229L11.19 6.71191L13.3081 5.25997L13.8248 6.01035L13.033 6.55328L16.5784 11.7014L19.2786 9.85076L18.788 9.13838L19.5418 8.62161L20.5491 10.0844ZM21.0162 4.11276L20.1573 4.45784L19.0894 1.80552L19.9912 1.44318C20.165 1.89528 20.3358 2.34021 20.5038 2.77789C20.6717 3.21573 20.8425 3.66066 21.0162 4.11276ZM28.6552 7.21812C28.4714 7.44886 28.2452 7.64251 27.9768 7.79954C27.7082 7.9565 27.4147 8.06523 27.0965 8.12596C26.8085 8.18092 26.5222 8.20246 26.2371 8.19025C25.9523 8.17811 25.686 8.14096 25.4385 8.07864C25.1911 8.01622 24.9654 7.93418 24.7615 7.8322C24.5577 7.73028 24.3921 7.61325 24.2648 7.48099L24.0149 6.16717L24.9129 5.9958L25.1046 7.00379C25.3303 7.11722 25.5899 7.20271 25.8837 7.26C26.1772 7.31739 26.4944 7.31371 26.8353 7.24855C27.0325 7.21097 27.2165 7.14642 27.3875 7.05513C27.5587 6.96374 27.7061 6.85142 27.83 6.71831C27.9448 6.57897 28.028 6.41835 28.0798 6.23628C28.1316 6.05439 28.1367 5.85382 28.0951 5.6349C28.0691 5.49891 28.0338 5.36486 27.9892 5.23249C27.9443 5.10022 27.8822 4.99085 27.803 4.90415C27.6743 4.7644 27.5346 4.66 27.3841 4.59097C27.2336 4.52194 27.0632 4.4625 26.8732 4.41271C26.5789 4.35149 26.2647 4.3098 25.9307 4.28729C25.5967 4.26502 25.2796 4.20816 24.9795 4.11678C24.6719 4.0269 24.4008 3.87122 24.1664 3.64998C23.9318 3.42867 23.7664 3.08464 23.6698 2.61798C23.6147 2.37017 23.6015 2.11452 23.6298 1.85089C23.6583 1.58732 23.7401 1.33686 23.8758 1.09973C24.0112 0.862691 24.2107 0.652398 24.4742 0.46911C24.7378 0.285726 25.0778 0.154271 25.4946 0.0747884C25.631 0.0487707 25.7801 0.0279641 25.9422 0.0126776C26.1041 -0.00244316 26.2766 -0.00406911 26.4595 0.0079676C26.6424 0.0200043 26.8353 0.053562 27.0382 0.108799C27.2411 0.16387 27.4477 0.249716 27.6583 0.365914L27.8693 1.4759L26.9715 1.64735L26.8445 0.979098C26.6889 0.946134 26.5122 0.925171 26.3141 0.915899C26.1162 0.906864 25.9034 0.923894 25.6761 0.967233C25.4488 1.01081 25.2586 1.08413 25.1056 1.18775C24.9525 1.29137 24.8344 1.41363 24.7513 1.55471C24.6745 1.68669 24.6253 1.83106 24.6041 1.98772C24.5827 2.1443 24.588 2.30575 24.6194 2.47192C24.6627 2.69841 24.7505 2.87129 24.8832 2.99079C25.0158 3.11022 25.1785 3.20249 25.3715 3.26727C25.6716 3.35865 26.0215 3.42299 26.4212 3.46013C26.8208 3.49743 27.2107 3.56566 27.5908 3.66524C27.9377 3.75558 28.2401 3.94047 28.4973 4.22007C28.7546 4.49951 28.9357 4.91493 29.0405 5.46609C29.1052 5.80599 29.1008 6.12356 29.0274 6.41936C28.9542 6.71507 28.83 6.98121 28.6552 7.21812ZM54.2791 31.127L54.3285 28.2904L55.2422 28.3045L55.2332 28.8233L61.5022 28.9197L61.5112 28.4008L62.4249 28.4149L62.3792 31.0439C62.3726 31.4207 62.328 31.7641 62.2454 32.0742C62.163 32.3842 62.0388 32.6495 61.8729 32.8701C61.7074 33.0827 61.4943 33.2486 61.2337 33.3676C60.9734 33.4867 60.6657 33.5435 60.311 33.5381C59.833 33.5307 59.4147 33.4108 59.0563 33.1785C58.6978 32.9461 58.457 32.5984 58.334 32.1352C58.284 32.3496 58.2032 32.558 58.0917 32.7601C57.9802 32.962 57.8382 33.1386 57.6661 33.2898C57.4939 33.4333 57.2951 33.5494 57.0698 33.6381C56.8447 33.727 56.5932 33.7692 56.3156 33.7649C55.9686 33.7596 55.6674 33.6819 55.4115 33.5319C55.1557 33.382 54.9451 33.1863 54.7797 32.9454C54.6066 32.6968 54.4784 32.4141 54.3952 32.0977C54.3121 31.7811 54.2733 31.4575 54.2791 31.127ZM57.9231 29.822L55.2166 29.7804L55.1942 31.0603C55.1901 31.2986 55.2133 31.522 55.2636 31.7303C55.3139 31.9386 55.3955 32.1246 55.5084 32.2878C55.6137 32.4433 55.7464 32.5682 55.9067 32.663C56.0672 32.7577 56.2591 32.8069 56.4827 32.8102C56.7217 32.8139 56.931 32.7633 57.1101 32.6584C57.2893 32.5535 57.4383 32.4174 57.5568 32.25C57.6678 32.0749 57.7523 31.8725 57.8103 31.6427C57.8683 31.4129 57.8994 31.1789 57.9035 30.9406L57.9231 29.822ZM61.4854 29.8768L58.8369 29.8361L58.8152 31.0815C58.8071 31.535 58.9282 31.8963 59.178 32.1653C59.4279 32.4346 59.7609 32.5723 60.1774 32.5787C60.4164 32.5823 60.6195 32.5451 60.7868 32.467C60.9539 32.3887 61.0889 32.2774 61.1917 32.133C61.2788 32.0036 61.345 31.8508 61.3905 31.6747C61.436 31.4984 61.4606 31.3067 61.4642 31.099L61.4854 29.8768ZM53.1749 37.8096L54.1448 35.4371L54.991 35.7796L54.6326 36.6558C55.61 37.6242 56.5741 38.5893 57.525 39.5511C58.4757 40.513 59.4397 41.478 60.4171 42.4464C59.0377 42.4612 57.6703 42.4828 56.3148 42.5112C54.959 42.5397 53.5916 42.5613 52.2124 42.5762L51.854 43.4524L51.0079 43.1099L51.9777 40.7376L52.824 41.0799L52.5794 41.6785C52.9975 41.6733 53.4115 41.6685 53.821 41.6641C54.2307 41.6596 54.6446 41.6548 55.0628 41.6498L56.0239 39.2987L54.2701 37.5428L54.0211 38.1519L53.1749 37.8096ZM58.1407 41.3882C57.9146 41.1473 57.6739 40.9068 57.4185 40.6664C57.1631 40.426 56.9308 40.2052 56.7216 40.0044L56.0575 41.6288L58.0533 41.6019L58.4504 41.6382C58.348 41.5634 58.2753 41.5071 58.2325 41.4691C58.1899 41.4309 58.1592 41.4041 58.1407 41.3882ZM47.9754 46.4276L49.9683 44.4636L50.6102 45.1108L49.976 45.7356L54.3796 50.1764L55.0136 49.5515L55.6555 50.1987L53.8274 52.0005L53.1856 51.3531L53.6961 50.8499L52.1117 49.2523C52.0684 49.2086 52.0278 49.1623 51.99 49.1131L51.8765 48.9659L51.9069 49.3084L51.8021 52.7166L52.1068 52.4164L52.7487 53.0636L50.9207 54.8651L50.2788 54.2179L50.9623 53.5443L51.067 50.1199C50.2388 50.0181 49.4161 49.919 48.5988 49.8228C47.7814 49.7265 46.9587 49.6274 46.1304 49.5255L45.5376 50.1099L44.8957 49.4627L46.7237 47.6611L47.3656 48.3083L46.9375 48.7303C47.635 48.8097 48.327 48.8918 49.0134 48.9766C49.7 49.0614 50.3921 49.149 51.0894 49.2394L51.1206 48.2528L49.2926 46.4093L48.6173 47.0748L47.9754 46.4276ZM38.1683 52.7306L43.4404 50.3208L43.82 51.1488L43.2308 51.4183L45.8347 57.0991L46.4239 56.8297L46.8034 57.6577L41.6787 60L40.9389 58.3859L41.7702 58.0059L42.1305 58.792L44.9613 57.4982L43.861 55.098L40.6093 56.5842L40.2298 55.7562L43.4815 54.27L42.3574 51.8174L39.3792 53.1786L39.7395 53.9647L38.9081 54.3447L38.1683 52.7306Z" fill="#CF2030"/>
<path fill-rule="evenodd" clip-rule="evenodd" d="M49.1362 43.0504C49.1375 43.0518 49.1384 43.0536 49.1397 43.055C49.4298 43.4308 49.5111 43.2948 49.4142 42.8816C49.2406 42.2328 48.989 41.607 48.6653 41.0183C48.3708 40.5121 48.0964 39.9948 47.8423 39.4677C47.8552 39.46 47.8677 39.4528 47.8802 39.4452C47.9552 39.4022 48.0277 39.3549 48.0973 39.3037C48.3528 39.0906 48.3956 38.9469 48.3238 38.7916C48.3079 38.7573 48.2882 38.7252 48.2652 38.6953C48.1819 38.6166 48.0547 38.6325 47.8618 38.7114C47.7614 38.7561 47.6601 38.8043 47.5587 38.8548C47.2769 38.2221 47.0244 37.576 46.802 36.9195C46.3181 35.4974 46.0734 34.0052 46.0772 32.5039C46.0981 30.6951 46.6329 28.8407 47.2402 27.0699C47.4092 26.5784 47.585 26.09 47.7675 25.6048C47.9436 25.1202 48.1519 24.6551 48.3629 24.1784L49.6515 21.32C49.8561 20.8553 50.0565 20.3872 50.2405 19.9056C50.3304 19.6631 50.4207 19.4243 50.4983 19.1717C50.5351 19.0437 50.5681 18.916 50.5969 18.785C50.6365 18.616 50.6193 18.4388 50.5479 18.2805C50.4033 17.9805 50.1609 17.7374 49.8603 17.592C49.5952 17.4779 49.3022 17.4452 49.0187 17.4992C48.7555 17.5478 48.5014 17.636 48.2645 17.7602C47.8145 18.0089 47.4134 18.3363 47.0794 18.7263C46.4173 19.4866 45.9514 20.3962 45.7213 21.3764L45.6685 21.6115C45.6559 21.6769 45.6437 21.7459 45.6349 21.8109C45.6354 21.8584 45.609 21.902 45.5663 21.9231L45.5021 21.9632L45.3978 22.0185L44.951 22.25C44.9211 22.2656 44.8909 22.2814 44.861 22.2974C44.5624 22.351 44.2769 22.4663 44.0237 22.6369C43.7658 22.7989 43.5301 22.9939 43.3233 23.2171L43.3611 23.2172C43.167 23.4358 42.9924 23.6709 42.8391 23.9199C42.8052 23.9763 42.7679 24.0286 42.7327 24.0829C42.483 24.4173 42.2683 24.7785 42.0932 25.1608C41.9023 25.5706 41.7725 26.0063 41.7081 26.4538C41.6644 26.6617 41.6855 26.8785 41.7685 27.0742C41.7937 27.1393 41.8252 27.2019 41.8624 27.2614C41.9815 27.397 42.1621 26.9195 42.4359 26.1162C42.7262 25.28 43.2037 24.5209 43.8321 23.8963C44.1515 23.585 44.5056 23.3119 44.8882 23.0821C45.0846 22.9614 45.2865 22.859 45.4983 22.7406C45.6064 22.685 45.7183 22.629 45.8583 22.5515C45.9608 22.4918 46.0543 22.4184 46.136 22.3324C46.178 22.2896 46.2092 22.2375 46.2271 22.1804C46.2519 22.1274 46.2715 22.0724 46.2869 22.0162L46.3152 21.8022C46.3105 21.7537 46.3324 21.7063 46.343 21.66C46.3537 21.6137 46.3777 21.4718 46.4027 21.3789C46.4493 21.1926 46.5072 21.0094 46.5764 20.8304C46.7097 20.4657 46.8827 20.1164 47.0919 19.7889C47.448 19.1972 47.9443 18.7015 48.5371 18.3451C48.7877 18.1898 49.0819 18.1182 49.3762 18.1401C49.4909 18.1559 49.5988 18.2029 49.6884 18.2762C49.7372 18.3115 49.78 18.3545 49.8143 18.4036C49.8169 18.4298 49.8532 18.4527 49.8711 18.4812L49.931 18.5132C49.9284 18.5568 49.9224 18.6004 49.9133 18.6431C49.8864 18.7551 49.853 18.879 49.8122 19.0036C49.7304 19.2529 49.6345 19.511 49.5324 19.7849L49.5669 19.7891C49.1896 20.7344 48.7591 21.6772 48.3282 22.6163C47.8973 23.5554 47.444 24.4967 47.0943 25.4921C46.8267 26.2043 46.5514 26.9134 46.3235 27.6445C45.906 28.9353 45.6269 30.2673 45.4914 31.6171C45.4257 32.2952 45.4149 32.9775 45.4591 33.6571C45.5133 34.3354 45.6167 35.0087 45.7686 35.6719C46.0389 36.8399 46.4122 37.9817 46.8839 39.0843C46.8979 39.1188 46.9118 39.1533 46.9262 39.1878C46.8489 39.2299 46.7713 39.2724 46.6929 39.315C46.6711 39.316 46.6489 39.3177 46.6268 39.3202C46.4222 39.3485 46.2383 39.4571 46.1149 39.6202C46.104 39.6258 46.0932 39.6309 46.0824 39.6365C45.6248 39.8728 45.1627 40.1019 44.6868 40.306L44.6725 40.3149C44.2073 40.5316 43.7306 40.7233 43.2449 40.8894C43.0649 40.9444 42.8758 40.9852 42.7029 41.0357C42.0775 41.236 41.4307 41.3641 40.7759 41.4167C40.4885 41.4341 40.2001 41.4188 39.9162 41.3709C39.8407 41.357 39.7661 41.3416 39.6925 41.3245C39.6613 41.0615 39.6347 40.7963 39.5963 40.534C39.528 40.0653 39.4281 39.5053 39.3292 38.9942L39.1207 38.0561C39.0138 37.5797 38.8772 37.11 38.7598 36.6422C38.656 36.275 38.5896 35.9041 38.467 35.5387C38.4481 35.4564 38.4239 35.3757 38.3943 35.2967C38.2527 35.0085 38.148 34.9431 37.983 34.9589C37.9491 34.9603 37.9153 34.9635 37.8818 34.9686C37.7824 34.997 37.7523 35.1546 37.7869 35.3549C37.941 35.9663 38.1389 36.5999 38.2947 37.2677C38.4218 37.7572 38.5383 38.2553 38.6388 38.7436L38.6585 38.7907C38.7676 39.2895 38.8876 39.7835 38.9764 40.2691C38.9942 40.4522 39.0315 40.641 39.0602 40.8193C39.0819 40.9372 39.1036 41.0551 39.1245 41.173C39.038 41.1474 38.9511 41.121 38.8637 41.0947C38.7514 41.0677 38.7053 41.1778 38.7468 41.3322C38.809 41.5397 38.9657 41.7065 39.169 41.7821C39.1906 41.7902 39.2122 41.7979 39.2338 41.8057C39.2862 42.1266 39.3341 42.4475 39.3748 42.7695L39.4592 43.6365C39.4955 44.0103 39.4869 44.3883 39.5309 44.7236C39.5392 44.8095 39.6306 44.8536 39.7425 44.7598C39.8843 44.6259 39.9682 44.4417 39.9765 44.247C39.9866 43.8915 39.9781 43.5362 39.9516 43.1823C39.9882 43.2818 40.0268 43.3829 40.0687 43.4838C40.1765 43.7786 40.3207 44.0586 40.498 44.3177C40.6144 44.4755 40.7558 44.6136 40.9162 44.7265C41.011 44.7902 41.1113 44.8451 41.216 44.8901C41.249 44.9028 41.283 44.9135 41.3174 44.9219L41.4602 44.9497C41.5384 44.952 41.6163 44.9445 41.6926 44.9274C41.8044 44.8974 41.908 44.8426 41.9948 44.7664C42.0692 44.6944 42.1278 44.608 42.1669 44.5122C42.1633 44.4748 42.1934 44.4342 42.2047 44.3954L42.2162 44.3189C42.2233 44.2397 42.2235 44.1601 42.2158 44.0813C42.2036 43.9825 42.1842 43.8848 42.1571 43.7889C42.1178 43.6376 42.0704 43.4887 42.0153 43.3423L41.9584 43.1856L42.2872 43.7651C42.389 43.9553 42.4907 44.1454 42.6202 44.348C42.6887 44.4644 42.7678 44.5742 42.8565 44.6762C42.8847 44.7097 42.9157 44.7407 42.9488 44.7692C42.9867 44.8093 43.0295 44.8444 43.0763 44.8739C43.2395 45.0034 43.449 45.0599 43.6553 45.0296C43.7879 45.0119 43.9134 44.9596 44.0189 44.8778C44.0576 44.8514 44.0915 44.8187 44.1193 44.7814C44.145 44.7533 44.1685 44.7231 44.19 44.6916C44.2554 44.6012 44.3058 44.5009 44.339 44.3944C44.3987 44.2031 44.41 43.9998 44.3723 43.8028C44.3607 43.7303 44.345 43.659 44.3249 43.5885L44.3129 43.4652C44.3129 43.4652 44.2864 43.4262 44.2689 43.4015L44.1874 43.3414C44.1702 43.3133 44.1571 43.2829 44.1483 43.2509C44.1446 43.2135 44.1687 43.1886 44.1878 43.1905C44.2069 43.1925 44.2511 43.2184 44.2896 43.2637L44.3459 43.3375C44.4058 43.4122 44.4589 43.4916 44.5053 43.575C44.6334 43.7755 44.7785 43.9645 44.9387 44.1407C45.0609 44.2844 45.2209 44.3917 45.4003 44.451C45.4857 44.4764 45.5755 44.4821 45.663 44.4673C45.7554 44.4562 45.8429 44.4218 45.9182 44.3674C45.9532 44.3459 45.9864 44.3213 46.017 44.2938L46.0749 44.2279C46.1091 44.1865 46.1389 44.1422 46.1642 44.0949C46.1861 44.0475 46.2151 43.9957 46.2298 43.9528L46.2865 43.7964C46.3254 43.5818 46.3039 43.3606 46.2243 43.1574C46.1763 43.0096 46.1179 42.865 46.0499 42.7252C45.9224 42.4659 45.786 42.23 45.6584 42.0083C45.5338 41.8045 45.4281 41.5899 45.3425 41.3672C45.3414 41.3598 45.3403 41.3523 45.3392 41.3445C45.3612 41.3496 45.3819 41.3593 45.3999 41.373C45.4363 41.3937 45.4705 41.4183 45.5016 41.4463C45.5399 41.4784 45.5752 41.5143 45.6066 41.5531C45.7515 41.7361 45.876 41.9339 45.9781 42.1437L46.3179 42.8353C46.3786 42.954 46.4397 43.0764 46.5192 43.1932C46.6208 43.3547 46.7641 43.4854 46.9345 43.5721C47.0222 43.6059 47.1123 43.6339 47.2038 43.6556C47.2526 43.6679 47.3028 43.6744 47.3533 43.6753C47.4189 43.681 47.4849 43.6747 47.5482 43.6566C47.6374 43.6393 47.72 43.5975 47.7862 43.5356C47.852 43.4728 47.8979 43.3925 47.9189 43.3041C47.9489 43.193 47.9516 43.0762 47.9274 42.9638C47.8588 42.6592 47.7525 42.3639 47.611 42.0851C47.4058 41.6484 47.1942 41.2235 47.0096 40.8037C46.9224 40.6118 46.857 40.4102 46.815 40.2037L46.8095 40.1477C47.0047 40.3021 47.1644 40.4965 47.2774 40.7176C47.4263 40.9636 47.5656 41.2294 47.7088 41.4948C47.8519 41.7602 47.9917 42.0297 48.1652 42.296C48.2537 42.432 48.3522 42.5613 48.4601 42.6826C48.5835 42.8266 48.7384 42.9407 48.9126 43.0164C48.9758 43.0432 49.0444 43.0559 49.1131 43.0538C49.1209 43.053 49.1283 43.0516 49.1362 43.0504ZM40.2737 42.0039C40.3189 42.0056 40.364 42.0066 40.4094 42.0064C40.5157 42.0094 40.6215 42.0086 40.7275 42.0049C40.7013 42.2451 40.7296 42.489 40.8117 42.7184C40.8602 42.9062 40.9365 43.1063 41.0056 43.3109L41.0731 43.5032C40.9856 43.3275 40.9065 43.148 40.8357 42.9651C40.7171 42.6094 40.5259 42.2819 40.2737 42.0039ZM41.9993 41.8169C42.2249 41.7745 42.4526 41.7342 42.6779 41.6854C42.6931 41.8492 42.727 42.0111 42.7789 42.1676C42.8876 42.5061 43.0248 42.8351 43.1887 43.1506C43.2761 43.3262 43.3542 43.5062 43.4228 43.6901C43.4582 43.7893 43.4822 43.8919 43.4942 43.9964L43.5003 44.0588C43.4989 44.0567 43.4973 44.0549 43.4959 44.0528C43.4405 43.9853 43.3894 43.9148 43.3429 43.8411C43.1381 43.5251 42.9625 43.1987 42.7488 42.8306C42.6133 42.6007 42.4652 42.378 42.3055 42.164C42.2133 42.0401 42.1108 41.9239 41.9993 41.8169ZM43.893 41.3305C44.0804 41.2657 44.2663 41.197 44.4512 41.1245C44.4439 41.1746 44.4413 41.2254 44.4443 41.2761C44.4647 41.5201 44.5302 41.7578 44.6375 41.978C44.8088 42.3388 45.0064 42.6971 45.17 43.0171C45.2357 43.1439 45.305 43.284 45.3512 43.398C45.2746 43.2983 45.1987 43.1875 45.1226 43.0744L44.7171 42.4457C44.5008 42.0436 44.229 41.6732 43.91 41.3462C43.9046 41.341 43.8988 41.3356 43.893 41.3305ZM45.5649 40.6386C45.7067 40.5707 45.847 40.4999 45.9864 40.4277C45.9881 40.4373 45.9901 40.4466 45.9918 40.4562C46.0281 40.6146 46.0761 40.7703 46.1355 40.9215C46.1982 41.092 46.267 41.2544 46.339 41.4112C46.2326 41.2385 46.11 41.0759 45.9732 40.9257C45.879 40.8246 45.7695 40.7386 45.6494 40.6701L45.5649 40.6386ZM45.3885 43.6951C45.3872 43.6975 45.3869 43.6979 45.3872 43.6941L45.3885 43.6951ZM45.5942 43.6584C45.5949 43.658 45.5953 43.6583 45.5958 43.659L45.5942 43.6584ZM47.1186 43.0878C47.1701 43.2711 47.1151 43.0942 47.1144 43.0871L47.1186 43.0878ZM22.337 52.4508C22.359 52.6181 22.4192 52.6806 22.5466 52.7223C22.5821 52.7336 22.6182 52.7426 22.6552 52.7496C22.774 52.7646 22.8722 52.6458 22.9151 52.4644C23.0591 51.9225 23.1426 51.3411 23.24 50.7471C23.2882 50.4573 23.3329 50.166 23.381 49.875C23.515 49.8433 23.6465 49.8024 23.7752 49.7527C23.8657 49.7101 23.821 49.6012 23.7134 49.5059C23.6372 49.4352 23.545 49.3859 23.4461 49.3614C23.5152 48.9274 23.5913 48.4928 23.69 48.0597C23.7231 47.8943 23.776 47.7383 23.8057 47.5771C23.9128 47.0047 24.0304 46.4239 24.1614 45.8644C24.2165 45.6139 24.2944 45.365 24.3728 45.1198C24.4879 44.8138 24.5839 44.5009 24.6601 44.1832C24.681 44.0869 24.5713 44.0484 24.4313 44.0882C24.26 44.1393 24.1195 44.2633 24.048 44.4267C23.7862 45.0577 23.5963 45.7164 23.4821 46.3897C23.4157 46.7959 23.2772 47.2015 23.1804 47.6069C23.0836 48.0122 22.9843 48.5084 22.8997 48.9616L22.8119 49.3887L21.4554 49.5188C21.2677 49.5383 21.0784 49.5376 20.8913 49.5164C20.7046 49.5041 20.5087 49.4738 20.3285 49.4496C19.918 49.4007 19.5118 49.3212 19.1133 49.2116C18.8683 49.1408 18.6287 49.0544 18.3955 48.9523C18.2186 48.8768 18.0471 48.7899 17.882 48.6922C17.7124 48.5983 17.5529 48.4873 17.407 48.3606C17.269 48.2448 17.1392 48.1203 17.0173 47.9883C17.397 46.4027 17.6716 44.7826 17.7455 43.1264C17.855 41.4946 17.7327 39.8553 17.3816 38.2575C17.1634 37.3724 16.8387 36.5171 16.4147 35.7098C16.1973 35.3078 15.9374 34.9306 15.6392 34.5846C15.3554 34.2346 15.0621 33.9044 14.7651 33.5746L13.6784 32.3623C13.3198 31.9867 12.9912 31.5844 12.6948 31.1591C12.6557 31.096 12.6228 31.0298 12.596 30.9611C12.5676 30.9219 12.5626 30.8704 12.5829 30.8265C12.6029 30.7982 12.6474 30.711 12.691 30.654C12.7347 30.597 12.7971 30.5382 12.8531 30.4913C12.9091 30.4444 12.9845 30.4033 13.0529 30.3665L13.2754 30.2811C13.6014 30.2087 13.9407 30.2229 14.2596 30.3224C14.9251 30.531 15.5152 30.9296 15.9567 31.4686C16.0425 31.5652 16.1217 31.667 16.1945 31.7739C16.2744 31.8753 16.3458 31.9831 16.4076 32.0968C16.4676 32.2079 16.5422 32.314 16.5914 32.4299L16.7664 32.7904L16.8202 32.8757C16.8502 32.8729 16.8665 32.9241 16.8946 32.9403C16.9466 32.9809 17.0046 33.0135 17.0667 33.0369L17.3088 33.1533C17.4675 33.2286 17.6161 33.3162 17.7646 33.4038C18.0538 33.5869 18.3271 33.7942 18.5818 34.0232C18.7729 34.2022 18.9534 34.3927 19.1217 34.5939C19.7476 35.3486 19.8831 35.6524 20.1636 35.7349C20.2194 35.7639 20.2774 35.7885 20.3373 35.8088C20.4145 35.824 20.4279 35.7284 20.3899 35.5322C20.3145 35.2399 20.1873 34.9635 20.0153 34.7156C20.0144 34.7146 20.0139 34.7138 20.0135 34.7131C19.9331 34.5243 19.8312 34.3451 19.7095 34.1791C19.5885 34.0247 19.4848 33.8536 19.3567 33.7037C19.218 33.5378 19.0663 33.3834 18.9031 33.2418C18.8033 33.1536 18.6991 33.0705 18.5912 32.9925C18.4256 32.8696 18.2504 32.7601 18.0675 32.6656C17.9305 32.5916 17.7866 32.5322 17.6377 32.488L17.5366 32.46C17.4792 32.4655 17.4387 32.4694 17.4082 32.4742L17.3103 32.4289C17.2937 32.3826 17.273 32.3378 17.2481 32.2953L17.1531 32.0969C17.0872 31.9637 16.9994 31.8401 16.9226 31.7116C16.8444 31.5886 16.7584 31.4709 16.6651 31.3591C16.5766 31.2356 16.479 31.119 16.3737 31.0099C15.9657 30.5424 15.4619 30.1679 14.8969 29.9105C14.4269 29.6889 13.905 29.5994 13.3882 29.6516C13.1061 29.6843 12.8356 29.7827 12.5987 29.9386C12.4667 30.0131 12.3485 30.1086 12.2478 30.2212C12.1924 30.2706 12.1458 30.3283 12.1093 30.3929L11.9651 30.6217C11.9309 30.7216 11.9143 30.8265 11.9158 30.932C11.9251 31.0356 11.949 31.1374 11.9869 31.2345C12.0377 31.3598 12.1 31.4798 12.1732 31.5939C12.2987 31.7946 12.4373 31.9865 12.5886 32.1689C12.8725 32.5188 13.1675 32.8678 13.4645 33.1976L13.537 33.1643C14.1227 33.8172 14.7186 34.4579 15.2414 35.1245C15.3709 35.2893 15.5027 35.4766 15.6158 35.628C15.7327 35.7952 15.8326 35.9738 15.9137 36.1614C16.105 36.5373 16.2692 36.9259 16.4053 37.3251C16.5133 37.6139 16.6052 37.9088 16.6804 38.2078L16.8857 39.1123C17.0742 40.1976 17.1586 41.2989 17.1375 42.4001C17.1105 43.512 17.0023 44.6205 16.813 45.7167C16.7183 46.2803 16.6059 46.8403 16.4761 47.3967C16.4257 47.3842 16.3709 47.3887 16.3034 47.4027L16.2022 47.4124C16.1035 47.4483 16.0862 47.582 16.1647 47.7668C16.2107 47.862 16.2617 47.9544 16.317 48.0442C16.2677 48.2341 16.2169 48.4231 16.1637 48.6119C15.8283 49.8322 15.4038 51.031 15.1316 52.2793C15.0443 52.6649 15.168 52.653 15.4207 52.3723C15.5368 52.2234 15.644 52.0683 15.7422 51.9076C15.7371 51.9519 15.7271 51.997 15.7287 52.0372C15.7308 52.0973 15.8227 52.1866 16.0264 52.1406C16.2402 52.0632 16.4237 51.9226 16.5531 51.7397C16.5131 51.9427 16.5034 52.1507 16.5243 52.3569C16.5488 52.5628 16.6351 52.7571 16.7715 52.9141C16.9459 53.0969 17.1917 53.196 17.445 53.1852C17.6585 53.1859 17.8662 53.1154 18.0348 52.9853C18.1631 52.8848 18.2702 52.7606 18.3511 52.6193C18.4315 52.4731 18.4952 52.3184 18.5405 52.1583C18.565 52.2811 18.6046 52.4007 18.6588 52.5143C18.7061 52.6195 18.7708 52.7167 18.8495 52.8016C18.8956 52.8515 18.951 52.8922 19.0125 52.9217C19.0984 52.9603 19.1921 52.9784 19.2864 52.9747C19.3746 52.9602 19.4562 52.9195 19.521 52.8579C19.5742 52.8181 19.6232 52.773 19.6668 52.7232C19.8154 52.5346 19.9229 52.3176 19.9832 52.0855C20.0716 51.7489 20.143 51.3158 20.2078 50.9323C20.2436 50.7554 20.2914 50.5471 20.3323 50.4225C20.3534 50.3514 20.3823 50.2826 20.4184 50.2181L20.4412 50.1838L20.4657 50.1984L20.4902 50.221C20.4881 50.2849 20.4829 50.3488 20.4751 50.4125C20.4109 50.8253 20.3742 51.2423 20.3657 51.6603C20.3573 51.9433 20.4262 52.2237 20.5656 52.471C20.7269 52.7086 21.0085 52.8374 21.2944 52.8047C21.4529 52.7955 21.5992 52.7162 21.6935 52.5891C21.8362 52.3559 21.9096 52.0875 21.9058 51.8143C21.9161 51.6097 21.916 51.4135 21.9203 51.2245C21.9246 51.0355 21.9289 50.8465 21.9497 50.6709C21.9599 50.5191 22.0019 50.371 22.0739 50.2366C22.0861 50.2135 22.1039 50.1948 22.1254 50.1818C22.1487 50.3908 22.144 50.6025 22.1108 50.8102C22.0763 51.0624 22.0556 51.316 22.0485 51.5705C22.0482 51.7071 22.0615 51.8435 22.0882 51.9779C22.1076 52.1469 22.1843 52.3048 22.3057 52.4248C22.3157 52.434 22.326 52.4428 22.337 52.4508ZM16.8429 48.6885C16.952 48.7912 17.0688 48.8864 17.1926 48.973C17.0848 48.9931 16.9824 49.0377 16.8928 49.104C16.8084 49.1702 16.7337 49.2471 16.6705 49.3324C16.7296 49.1185 16.787 48.9036 16.8429 48.6885ZM17.9883 49.4191L18.2196 49.5252C18.1265 49.7265 18.0633 49.9404 18.0324 50.1602C17.9528 50.5866 17.9099 51.0019 17.8356 51.4051C17.7944 51.6851 17.7139 51.9584 17.5967 52.2164C17.5308 52.317 17.4921 52.3471 17.4467 52.3477C17.4014 52.3482 17.4215 52.3991 17.3806 52.2899C17.3631 52.0136 17.3979 51.7364 17.4827 51.4729C17.5604 51.1825 17.6678 50.8855 17.7744 50.5811C17.8578 50.3373 17.927 50.0885 17.982 49.8369C18.0126 49.6993 18.015 49.5572 17.9883 49.4191ZM19.3082 49.873C19.4892 49.9134 19.6718 49.9468 19.8553 49.9733C19.8411 49.9984 19.8276 50.0235 19.8154 50.0496L19.7596 50.1756L19.7256 50.2543C19.7303 50.3029 19.6972 50.3514 19.6869 50.4014C19.6766 50.4514 19.6455 50.5977 19.626 50.709C19.6066 50.8203 19.6039 50.8318 19.5838 50.8979C19.5638 50.9639 19.5459 51.0524 19.4732 51.0443C19.4005 51.0362 19.3868 50.9734 19.3746 50.9255C19.3632 50.87 19.3577 50.8136 19.3582 50.7573C19.347 50.6415 19.3575 50.516 19.3556 50.3804L19.3316 50.1337C19.3296 50.0464 19.3219 49.9592 19.3082 49.873ZM21.1664 50.0728C21.2276 50.0722 21.2885 50.0712 21.3496 50.0695C21.2813 50.2232 21.2386 50.3872 21.2232 50.5558C21.1899 50.9332 21.1787 51.3118 21.1898 51.6906L21.2102 51.8999C21.2132 51.9196 21.2049 51.9393 21.1887 51.951C21.1814 51.9544 21.1737 51.9566 21.1662 51.9573C21.1336 51.9605 21.1038 51.9384 21.0973 51.907C21.0937 51.8885 21.0918 51.8698 21.0919 51.8509L21.0741 51.6678C21.0621 51.5445 21.079 51.407 21.0902 51.289C21.1072 50.9969 21.1549 50.7095 21.1815 50.3599C21.1906 50.2636 21.1854 50.1671 21.1664 50.0728ZM20.4127 50.1171C20.3985 50.0996 20.4072 50.0645 20.409 50.0832C20.4113 50.0943 20.4128 50.1058 20.4127 50.1171ZM40.9778 17.4765C40.9748 17.4964 40.9722 17.5159 40.9692 17.5358C40.9472 17.7378 40.9253 17.9398 40.9112 18.1449C40.8986 18.4199 40.9254 18.6957 40.9908 18.9633C41.0227 19.1047 41.1031 19.2306 41.2184 19.3187C41.2537 19.3511 41.2907 19.3815 41.3294 19.4099C41.4252 19.4611 41.5423 19.1481 41.5829 18.6312C41.752 17.0046 42.0813 15.3989 42.5659 13.8368C42.7439 13.2434 42.9523 12.6591 43.1903 12.087C43.3022 11.7971 43.4465 11.5306 43.5744 11.2505C43.7127 10.9841 43.8674 10.726 44.0367 10.4781L44.0266 10.4527C44.1791 10.2117 44.3596 9.98921 44.5639 9.79006C44.6609 9.70192 44.7643 9.62146 44.8734 9.54913C44.919 9.52326 44.9659 9.49952 45.0142 9.47904L45.0742 9.47329C45.1053 9.47408 45.133 9.49406 45.1434 9.52324C45.1896 9.62443 45.2179 9.73261 45.2275 9.84334C45.2562 10.1341 45.2582 10.427 45.2331 10.7179C45.2167 10.9383 45.1891 11.1597 45.158 11.3853C45.127 11.6108 45.0903 11.8557 45.066 12.0731C44.8693 13.6687 44.6223 15.2918 44.4933 16.9224C44.4311 17.645 44.3851 18.3775 44.3645 19.0999C44.3561 20.0249 44.3423 21.0107 44.7811 21.9041C44.9141 22.1818 45.0314 22.0649 45.0952 21.7872C45.176 21.3921 45.1964 20.9869 45.1562 20.5856C45.0679 19.6816 45.0554 18.7719 45.1187 17.8658C45.1728 16.9439 45.2565 16.0155 45.3392 15.0759C45.4385 13.9573 45.6797 12.7799 45.8106 11.6357C45.9227 10.9796 45.9455 10.3112 45.8784 9.64888C45.8527 9.43898 45.7746 9.239 45.6515 9.06711C45.4985 8.85998 45.2358 8.76183 44.984 8.81805C44.6194 8.9213 44.2895 9.12118 44.0298 9.39618C43.4787 9.99789 43.0339 10.6886 42.7148 11.4386C42.4329 12.0616 42.1834 12.6981 41.9671 13.3458C42.1166 12.1908 42.3411 10.9976 42.4581 9.77326C42.5225 9.25634 42.5502 8.73577 42.5412 8.21496C42.5321 8.05966 42.5021 7.90675 42.4515 7.75959C42.3942 7.56365 42.2644 7.39692 42.0882 7.29275C41.9241 7.18551 41.7286 7.13637 41.5335 7.15357C41.3582 7.16813 41.1883 7.2229 41.0382 7.31424C40.7657 7.48146 40.5298 7.70174 40.3443 7.96171C40.1722 8.19587 40.0217 8.44531 39.8946 8.70646C39.6379 9.2109 39.4244 9.73608 39.2564 10.2765C39.0528 10.9339 38.8905 11.6032 38.7702 12.2809C38.5937 13.2989 38.4776 14.3267 38.4225 15.3583C38.3747 16.1513 38.3146 16.9341 38.3119 17.7227C38.3061 17.8968 38.3037 18.0668 38.3096 18.2435C38.3237 18.8947 38.3925 19.0956 38.605 19.2186C38.6486 19.2506 38.6955 19.2778 38.7453 19.2994C38.8936 19.3455 39.0035 19.0747 39.0113 18.61C39.0544 17.2253 39.0693 15.7829 39.2123 14.3358C39.3074 13.2671 39.4889 12.2074 39.7556 11.1679L39.7324 11.1626C39.8605 10.6512 40.0201 10.1486 40.2103 9.65693C40.3921 9.17967 40.6389 8.72974 40.943 8.31922C41.0965 8.08118 41.3362 7.9107 41.612 7.84389C41.6733 7.84441 41.7316 7.87201 41.7707 7.91919C41.8171 8.02677 41.8423 8.14205 41.8454 8.25906C41.8624 8.58975 41.8526 8.92113 41.8169 9.25009C41.7545 9.93128 41.6478 10.6243 41.5453 11.3206C41.4538 11.9367 41.3515 12.5576 41.2721 13.1801C41.2185 13.5828 41.1922 13.9886 41.1934 14.3947C41.1898 14.6376 41.2149 14.8796 41.2685 15.1155C41.2628 15.1425 41.2575 15.1694 41.2525 15.1963C41.1948 15.4206 41.1526 15.6472 41.114 15.8734L41.1212 15.869C41.086 16.0911 41.0587 16.3163 41.0355 16.5449C41.0432 16.6234 41.0096 16.7058 41.0026 16.7894C40.9893 17.0189 40.9828 17.2478 40.9778 17.4765ZM35.2664 16.4404C35.264 16.3957 35.2608 16.3515 35.2565 16.3071C35.2399 16.0284 35.1442 15.7603 34.9807 15.5338C34.8866 15.4029 34.7731 15.2867 34.6444 15.1889L34.4988 15.0934C34.4472 15.0682 34.3929 15.0546 34.3416 15.0331C34.2385 14.9924 34.1261 14.9809 34.0167 15.0001C33.7954 15.0394 33.6028 15.1756 33.4927 15.371L33.4046 15.5153L33.3582 15.6216C33.3283 15.6882 33.3044 15.7572 33.2874 15.8283C33.173 16.3164 33.1214 16.817 33.1334 17.3179C33.1476 18.2653 33.2255 19.2102 33.367 20.1472C33.4219 20.7116 33.5098 21.2652 33.5819 21.8505C33.654 22.4358 33.7175 23.0106 33.7717 23.5675C33.892 24.8045 33.8863 26.0687 33.9908 27.3374C34.047 28.1246 34.1721 28.9051 34.3654 29.6704C34.5128 30.2556 34.7265 30.8225 35.0027 31.3595C35.2859 31.8899 35.6247 32.3885 36.014 32.8468C36.311 33.2 36.6343 33.5312 36.9807 33.8367C37.3258 34.1476 37.6988 34.426 38.0948 34.6691C38.2684 34.7807 38.4477 34.8729 38.6314 34.9722C39.3352 35.2819 39.611 35.278 39.8067 35.1499C39.8542 35.125 39.8982 35.0943 39.9378 35.0581C40.036 34.9393 39.77 34.7724 39.3028 34.5607C37.8526 33.9141 36.6295 32.8485 35.7924 31.5025C35.1839 30.4598 34.8123 29.2963 34.7041 28.0951L34.6734 28.0905C34.514 26.8799 34.4949 25.6331 34.4177 24.3731C34.373 23.9134 34.3695 23.4498 34.3057 22.9881C34.0784 21.3917 33.8823 19.8036 33.8107 18.2111C33.7647 17.5173 33.7983 16.8204 33.9114 16.1343C33.9283 16.0365 33.9546 15.9404 33.9894 15.8477C33.9985 15.8159 34.0138 15.7865 34.0339 15.7604C34.047 15.7388 34.0645 15.7205 34.0854 15.7064C34.1227 15.6769 34.1744 15.6719 34.2167 15.6939C34.2382 15.7046 34.2588 15.7181 34.2773 15.7333C34.3127 15.7586 34.3461 15.7871 34.3763 15.8181C34.649 16.1503 34.8655 16.5245 35.0177 16.926C35.1605 17.1876 35.2353 17.1012 35.2552 16.839C35.2578 16.815 35.26 16.7911 35.2619 16.7671C35.2614 16.7856 35.2613 16.8045 35.2613 16.8234C35.2595 17.544 35.2997 18.2682 35.3429 18.9845C35.3967 19.5376 35.3935 20.0887 35.4586 20.6407C35.4628 20.7659 35.4749 20.8907 35.4949 21.0144C35.5805 21.4664 35.7061 21.5902 35.8963 21.6398C35.9381 21.6532 35.9807 21.6626 36.0241 21.669C36.0878 21.6629 36.1333 21.6246 36.1696 21.5306C36.2125 21.4084 36.2282 21.2779 36.2157 21.149C36.1608 20.1961 36.054 19.2143 36.0203 18.2066C35.9925 17.4548 35.9873 16.7009 36.0196 15.9434L35.9966 15.9796C36.0052 15.6015 36.0214 15.2228 36.0509 14.8653C36.0805 14.5079 36.1094 14.1053 36.1518 13.724C36.1822 13.4533 36.2396 13.1875 36.2776 12.9161C36.34 12.4457 36.431 11.9798 36.5505 11.5206C36.6071 11.3005 36.6838 11.0861 36.7796 10.88C36.8444 10.7101 36.9633 10.5663 37.1182 10.4703C37.1684 10.4538 37.2233 10.4583 37.2707 10.4821C37.3398 10.5162 37.4029 10.5611 37.4577 10.615C37.5801 10.7527 37.6708 10.9152 37.7235 11.0912C37.8843 11.5775 37.8819 12.136 38.1321 12.6854C38.2171 12.8583 38.3009 12.7861 38.3715 12.6171C38.4839 12.3762 38.5385 12.113 38.5312 11.8474C38.5005 11.5474 38.4489 11.2499 38.3765 10.9569C38.2937 10.5959 38.1007 10.2689 37.8238 10.0216C37.7378 9.95407 37.6443 9.89626 37.5458 9.84838C37.4244 9.79439 37.2927 9.76741 37.1596 9.76848C36.9051 9.78573 36.6681 9.90503 36.5031 10.0993C36.2914 10.3621 36.1366 10.6659 36.0487 10.9916C35.8424 11.679 35.6792 12.379 35.56 13.0867C35.4415 13.8525 35.368 14.614 35.3113 15.3927C35.2871 15.7428 35.273 16.092 35.2664 16.4404ZM28.1996 27.4731C28.3876 27.34 28.531 27.1527 28.6094 26.9355C28.7868 26.5412 28.9116 26.1521 29.044 25.7621C29.1072 25.5833 29.181 25.4088 29.2656 25.2392C29.296 25.1786 29.3324 25.1208 29.3737 25.0666C29.3774 25.0618 29.38 25.0577 29.3823 25.0541C29.3813 25.0674 29.3853 25.0889 29.4088 25.1161C29.4991 25.2474 29.5681 25.3924 29.6133 25.5453C29.7189 25.9079 29.7744 26.2836 29.7786 26.6611C29.7832 27.8953 29.6281 29.1248 29.317 30.3191L29.3358 30.3173C29.1866 30.9238 29.0296 31.5273 28.8419 32.1262C28.6542 32.7251 28.4462 33.3486 28.3146 33.9799C28.2116 34.4386 28.1087 34.8974 28.032 35.3536C27.8987 36.1623 27.7838 36.9655 27.602 37.7411C27.4298 38.5192 27.1653 39.2738 26.8141 39.9895C26.5031 40.6168 26.0922 41.19 25.5979 41.6866C24.9517 42.2918 24.1907 42.7624 23.3598 43.0707C23.1172 43.2222 23.1567 43.2788 23.4365 43.3538C23.6198 43.4052 23.8117 43.4177 24.0001 43.3902C24.1249 43.3737 24.2491 43.3505 24.3718 43.3206C24.4954 43.2767 24.6169 43.2258 24.7355 43.1688C25.6263 42.6752 26.3798 41.9677 26.9269 41.1103C27.4542 40.2758 27.8409 39.361 28.0711 38.4015C28.3392 37.2668 28.5391 36.0934 28.7704 34.9697C28.8839 34.3545 29.0348 33.7467 29.2215 33.1498C29.4089 32.5471 29.633 31.9334 29.7998 31.3139C29.9097 30.9261 30.012 30.5391 30.0994 30.1535C30.1868 29.7679 30.2704 29.3827 30.3428 28.9985C30.3973 28.7029 30.4244 28.3985 30.4673 28.1001C30.5102 27.8018 30.5261 27.4985 30.5266 27.1929C30.5588 26.575 30.4872 25.9557 30.3144 25.3612C30.2416 25.1154 30.1271 24.8838 29.9753 24.677C29.8028 24.3861 29.4413 24.2605 29.1254 24.3813C28.9848 24.4608 28.8659 24.5733 28.7788 24.7088C28.7075 24.8163 28.6451 24.9294 28.5922 25.0473C28.4912 25.2618 28.4025 25.4819 28.3271 25.7064L28.3259 25.7096C28.3528 25.4146 28.379 25.119 28.3965 24.8246C28.4259 24.0263 28.4064 23.227 28.3377 22.4312C28.2981 21.9307 28.2244 21.4338 28.1173 20.9435C28.039 20.5629 27.909 20.1944 27.7308 19.849C27.6244 19.6574 27.4794 19.4902 27.3046 19.358C27.1123 19.2131 26.8742 19.1424 26.6343 19.1582C26.4297 19.1793 26.2426 19.2833 26.1173 19.4454C26.0136 19.5818 25.9302 19.732 25.8693 19.8917C25.8448 19.9631 25.8219 20.0351 25.7998 20.1074C25.7333 19.7112 25.6533 19.3168 25.5596 18.9256C25.4252 18.4232 25.2074 17.9469 24.9154 17.5162C24.7543 17.2846 24.55 17.0866 24.3137 16.9327C24.1903 16.8585 24.0572 16.8015 23.9187 16.7631C23.846 16.7433 23.7726 16.7277 23.6985 16.7163L23.4256 16.7123C23.1958 16.7302 22.9964 16.8791 22.914 17.0934C22.8726 17.1815 22.8384 17.2734 22.8119 17.3672C22.7896 17.4486 22.7747 17.5292 22.7595 17.6061C22.6527 18.3945 22.6288 19.192 22.6882 19.9856C22.7157 20.579 22.8031 21.1666 22.8254 21.7453C22.869 22.3217 22.8787 22.9002 22.8539 23.4778C22.802 24.356 22.66 25.2267 22.4293 26.076L22.2717 26.6343C22.0743 27.3284 22.0751 27.5698 22.2083 27.772C22.2345 27.8197 22.2653 27.8646 22.3008 27.9065C22.4137 28.0164 22.6277 27.7657 22.8316 27.2558C23.122 26.475 23.3337 25.6675 23.4637 24.8451C23.5837 23.9853 23.6259 23.1163 23.5896 22.2492C23.5724 21.6058 23.5017 20.9562 23.4581 20.3531C23.4146 19.75 23.4023 19.1174 23.4116 18.513L23.3982 18.4916C23.3989 18.2305 23.419 17.9702 23.4586 17.7126C23.4657 17.6538 23.4779 17.596 23.4947 17.5394L23.5205 17.4539C23.5187 17.4352 23.539 17.4106 23.5618 17.4122C23.5903 17.4095 23.6191 17.4131 23.6461 17.423C23.7029 17.4307 23.7587 17.4442 23.8128 17.4636C23.9261 17.5116 24.0309 17.5781 24.1233 17.6601C24.3314 17.862 24.4986 18.1021 24.616 18.3673C24.7881 18.76 24.9196 19.1699 25.0073 19.5896C25.3342 21.1369 25.4602 22.7197 25.3822 24.299C25.3565 25.0035 25.2921 25.706 25.1896 26.4035C25.0453 27.2924 24.8619 28.1701 24.6895 29.0429C24.6291 29.3165 24.7355 29.3214 24.937 29.1361C25.2493 28.8338 25.4741 28.4523 25.5865 28.0327C25.5976 27.9867 25.609 27.9404 25.62 27.8944C25.6449 27.8354 25.6687 27.7766 25.692 27.717C25.7758 27.4962 25.8422 27.2688 25.8909 27.0378L25.886 27.027C25.9308 26.7982 25.9628 26.5673 25.9815 26.335L26.0066 26.0875C26.0177 25.8167 26.0111 25.5506 26.0079 25.2846C26.0091 25.269 26.0099 25.2539 26.011 25.2383C26.0875 24.294 26.094 23.345 26.03 22.3998C26.0235 22.216 26.0143 22.0324 26.0026 21.8491C26.0896 21.7559 26.154 21.6433 26.1905 21.5206C26.3557 21.0408 26.4687 20.4906 26.5928 20.0939C26.6128 20.0226 26.6476 19.9563 26.695 19.8993C26.7625 19.8928 26.8209 19.9098 26.9281 20.0391C27.1116 20.2991 27.2409 20.5934 27.3074 20.9043C27.4024 21.2693 27.4703 21.6412 27.5102 22.0164L27.5445 21.9792C27.6399 22.7388 27.6931 23.5032 27.7029 24.2688C27.7076 24.5512 27.6858 24.8325 27.6827 25.1119C27.678 26.1101 27.6226 27.1078 27.5155 28.1004C27.4599 28.5395 27.3892 28.9801 27.3021 29.4071C27.2458 29.6841 27.1737 29.9551 27.1013 30.2223C27.0402 30.4847 26.9655 30.7434 26.8779 30.9982C26.8197 31.1395 26.8968 31.1925 27.0589 31.109C27.301 30.9632 27.4908 30.744 27.5998 30.4838C27.7967 29.9206 27.9467 29.3423 28.0484 28.7546C28.1169 28.3297 28.1676 27.902 28.1996 27.4731ZM19.318 23.153C19.3123 22.5501 19.3111 21.9542 19.3249 21.3569C19.3272 20.7769 19.3772 20.198 19.4744 19.6262C19.5014 19.4905 19.5472 19.3589 19.6106 19.2359C19.6278 19.1958 19.6735 19.1752 19.7157 19.1881C19.753 19.1985 19.7889 19.2139 19.8223 19.2345C20.0927 19.3994 20.3077 19.6417 20.4387 19.9298C20.6043 20.2549 20.7363 20.5961 20.833 20.9482C21.0284 21.6774 21.1617 22.4217 21.2311 23.1732C21.2957 23.849 21.3186 24.5285 21.3003 25.2073C21.2855 25.6388 21.2598 26.075 21.2413 26.5068C21.2227 26.9386 21.1847 27.3647 21.1699 27.7962C21.15 28.0584 21.2441 28.0531 21.4134 27.8483C21.5156 27.7162 21.6059 27.5748 21.6827 27.4264C21.7792 27.2089 21.845 26.9793 21.8774 26.7438C21.9902 25.8379 22.0167 24.9236 21.9561 24.0128C21.9127 23.092 21.7794 22.1772 21.558 21.2822C21.4366 20.7733 21.2731 20.2756 21.0688 19.7939C20.9509 19.5385 20.8005 19.2995 20.6212 19.0824L20.465 18.9163C20.4071 18.8653 20.342 18.8187 20.2803 18.7681C20.2135 18.7236 20.1438 18.6838 20.0719 18.6485C20.0362 18.6278 19.9976 18.6126 19.9577 18.6029L19.7937 18.5507C19.658 18.5181 19.5156 18.5317 19.3887 18.5895C19.2782 18.6481 19.1839 18.7322 19.1136 18.8347C19.0521 18.9217 19.003 19.0166 18.967 19.1166C18.9082 19.275 18.8632 19.4385 18.8328 19.6048C18.7774 19.9141 18.7396 20.2263 18.7194 20.5398C18.6737 21.159 18.6648 21.7672 18.6596 22.375L18.6581 24.6158C18.6584 25.7474 18.6737 26.8776 18.6082 27.9929C18.5441 28.8436 18.4151 29.6885 18.222 30.5195C18.1753 30.7013 18.1238 30.8722 18.0731 31.0506C17.8755 31.7032 17.7759 31.8863 17.872 32.0959C17.8831 32.1435 17.899 32.1899 17.9196 32.2346C17.9773 32.3611 18.2527 32.1574 18.4716 31.6461C19.0815 30.1353 19.1611 28.4641 19.2706 26.8279C19.3058 26.2172 19.326 25.6079 19.3425 24.999C19.3589 24.3902 19.345 23.7804 19.3468 23.1767L19.318 23.153ZM39.0998 21.193C39.3482 21.1556 39.5987 21.1315 39.8497 21.121C39.9397 21.1124 40.0318 21.1262 40.1225 21.125C40.4433 21.1199 40.7644 21.1329 41.0839 21.1649C41.2245 21.183 41.3639 21.2112 41.5008 21.2493C41.6728 21.3102 41.8496 21.3577 42.0292 21.391C42.1443 21.4064 42.1028 21.0973 41.8991 21.0263C41.5287 20.8827 41.1373 20.8002 40.7402 20.7829C40.5048 20.7753 40.2631 20.7419 40.024 20.7346C39.7849 20.7274 39.4989 20.7435 39.2398 20.7646L38.7599 20.8106L38.0531 20.8973L37.3782 20.962C37.2282 20.9764 37.1876 21.0256 37.1756 21.1361L37.1829 21.2109C37.1913 21.2968 37.2612 21.3542 37.3714 21.3588C37.7075 21.3714 38.0439 21.3554 38.3772 21.3113C38.6246 21.2876 38.8737 21.2411 39.1249 21.217L39.0998 21.193ZM24.6936 30.0572C24.4757 29.9574 24.2474 29.8661 24.0163 29.7864C23.9336 29.7529 23.8505 29.7156 23.7648 29.6898C23.4565 29.598 23.1385 29.5424 22.8177 29.5242C22.6772 29.5188 22.5359 29.506 22.3923 29.5084C22.2059 29.498 22.0202 29.5381 21.8549 29.6241C21.8008 29.6519 21.8395 29.7387 21.9082 29.8227C21.9769 29.9066 22.0757 29.9877 22.1585 29.9835C22.4655 29.988 22.7661 29.9667 23.1015 29.9911C23.3041 30.0154 23.5024 30.07 23.6888 30.1536C23.9069 30.2288 24.1212 30.3154 24.3308 30.4126C24.4615 30.4717 24.5925 30.5346 24.7276 30.6009C24.9249 30.6962 25.1159 30.8039 25.3001 30.9232C25.4377 31.0156 25.566 31.1278 25.7074 31.2198C25.7399 31.2431 25.7649 31.2671 25.7971 31.2867C25.9142 31.3622 25.9735 31.349 26.0512 31.2925C26.0512 31.2925 26.0865 31.2664 26.1001 31.2501C26.1136 31.2337 26.1365 31.1183 26.0786 31.0296C25.9781 30.9068 25.8696 30.7912 25.7536 30.6835C25.6238 30.5828 25.4884 30.4902 25.3481 30.4056C25.141 30.2764 24.9275 30.1585 24.7082 30.052L24.6936 30.0572ZM48.827 5.33743L48.8188 5.33068C49.1686 5.03684 48.7315 4.43374 48.3824 4.73504C47.6136 5.3897 46.7818 6.02021 46.3281 6.95773C46.1202 7.38882 46.7895 7.69429 46.9943 7.27103C47.3915 6.45211 48.1446 5.90835 48.827 5.33743ZM52.2698 11.4349L52.2623 11.4356C52.73 11.4586 52.8604 10.737 52.3889 10.7143C51.3774 10.6642 50.3947 10.8716 49.3829 10.9347C49.2168 10.9895 49.1097 11.1533 49.1267 11.3271C49.1436 11.5009 49.2802 11.6413 49.4538 11.6635C50.3951 11.6147 51.3269 11.3895 52.2698 11.4349Z" fill="#231F20"/>
</svg>
