<svg width="154" height="149" viewBox="0 0 154 149" fill="none" xmlns="http://www.w3.org/2000/svg">
<path fill-rule="evenodd" clip-rule="evenodd" d="M20.2408 67.1138L19.9088 81.3628L17.662 81.3104L17.699 79.7174L2.28378 79.3581L2.24682 80.951L0 80.8985L0.147275 74.5847L2.39409 74.6371L2.33884 76.9978L17.754 77.3572L17.9416 69.3082L15.8083 69.2584L15.8607 67.0116L20.2408 67.1138ZM23.0203 57.1219L20.5625 62.9393L18.4921 62.0649L19.4001 59.9161C17.0268 57.4924 14.6856 55.0776 12.3776 52.6712C10.0689 50.265 7.72826 47.8499 5.35488 45.4267C8.74696 45.439 12.1101 45.4341 15.4444 45.412C18.7791 45.3901 22.1423 45.3852 25.5342 45.398L26.4422 43.2491L28.5124 44.1238L26.0544 49.9416L23.9842 49.0669L24.6043 47.5993C23.5754 47.5969 22.5578 47.594 21.5501 47.5905C20.5429 47.5872 19.5249 47.5841 18.4964 47.5818L16.0604 53.3471L20.3188 57.7408L20.9501 56.2472L23.0203 57.1219ZM10.9196 48.1177C11.4682 48.7201 12.0529 49.3219 12.6732 49.9241C13.2941 50.5259 13.8583 51.0784 14.3668 51.5814L16.0495 47.598L11.1411 47.5936L10.1656 47.4902C10.4154 47.6779 10.5927 47.8196 10.6963 47.9152C10.8001 48.0104 10.8748 48.0777 10.9196 48.1177ZM36.0413 35.9807L31.5482 41.1974L29.8455 39.7306L31.312 38.0278L19.6286 27.9653L18.1619 29.6685L16.4593 28.2016L20.9518 22.9851L22.6546 24.4516L21.1696 26.1764L32.8532 36.2385L34.3381 34.5141L36.0413 35.9807ZM50.481 24.8638L38.7334 32.9352L37.4608 31.0829L38.7741 30.1805L30.0423 17.4718L28.729 18.3742L27.4564 16.5218L32.6617 12.9451L33.9343 14.7974L31.9884 16.1349L40.7199 28.8434L47.3558 24.2845L46.1475 22.5259L48.0001 21.2529L50.481 24.8638ZM51.6153 10.1334L49.5037 10.9827L46.8712 4.43702L49.088 3.5453C49.5165 4.66102 49.9375 5.75904 50.3518 6.83916C50.7658 7.91968 51.1868 9.01771 51.6153 10.1334ZM70.409 17.8124C69.9575 18.3812 69.4017 18.8584 68.7419 19.2451C68.0818 19.6317 67.3604 19.8992 66.578 20.0482C65.8699 20.1832 65.1656 20.2356 64.4646 20.2048C63.764 20.1742 63.1092 20.0819 62.5002 19.9275C61.8919 19.773 61.3366 19.5701 60.8348 19.318C60.3334 19.0661 59.9258 18.7769 59.6125 18.4504L58.9947 15.2087L61.2028 14.7881L61.6765 17.2752C62.232 17.5555 62.8706 17.7671 63.5932 17.9091C64.3151 18.0514 65.0952 18.043 65.9335 17.8831C66.4183 17.7909 66.8707 17.6321 67.291 17.4073C67.7118 17.1822 68.074 16.9055 68.3783 16.5774C68.6603 16.234 68.8647 15.8379 68.9916 15.3889C69.1184 14.9403 69.1306 14.4455 69.0277 13.9054C68.9634 13.5698 68.8764 13.2391 68.7662 12.9124C68.6555 12.586 68.5027 12.316 68.3076 12.102C67.9907 11.7569 67.6471 11.499 67.2767 11.3284C66.9064 11.1577 66.4872 11.0107 66.0197 10.8874C65.296 10.7357 64.5232 10.6321 63.7016 10.5757C62.8802 10.52 62.1002 10.379 61.362 10.1528C60.6052 9.93036 59.9382 9.54566 59.3613 8.99932C58.7839 8.4528 58.3761 7.6037 58.1375 6.45225C58.0014 5.84079 57.9682 5.21009 58.0373 4.55979C58.1067 3.90967 58.3074 3.29201 58.6404 2.70734C58.9728 2.1229 59.4631 1.60461 60.1104 1.15308C60.7584 0.701314 61.5942 0.377838 62.6191 0.182757C62.9545 0.1189 63.3211 0.0679284 63.7195 0.0306057C64.1178 -0.00630842 64.542 -0.00990662 64.9918 0.0202249C65.4417 0.0503565 65.9162 0.133603 66.4151 0.270354C66.9143 0.406696 67.4225 0.618965 67.9407 0.906122L68.4625 3.64488L66.2548 4.06569L65.941 2.41686C65.5582 2.33516 65.1235 2.28303 64.6365 2.25968C64.1496 2.23691 63.6265 2.27842 63.0675 2.38479C62.5087 2.49174 62.0412 2.67216 61.665 2.92741C61.2888 3.18267 60.9988 3.48401 60.7947 3.83183C60.6061 4.15724 60.4855 4.51327 60.4337 4.89968C60.3815 5.28592 60.3947 5.68421 60.4726 6.09422C60.5795 6.65304 60.7958 7.07975 61.1225 7.37486C61.4488 7.66979 61.8492 7.8978 62.3241 8.05808C63.0624 8.28423 63.9229 8.44379 64.906 8.53636C65.8889 8.62933 66.8478 8.79859 67.7828 9.04515C68.6362 9.26886 69.3802 9.72568 70.0135 10.4161C70.6469 11.106 71.0933 12.1313 71.3525 13.4912C71.5122 14.3299 71.5022 15.1133 71.3224 15.8428C71.1431 16.5721 70.8384 17.2284 70.409 17.8124ZM133.483 76.8552L133.597 69.8576L135.844 69.8947L135.823 71.1744L151.241 71.4273L151.262 70.1472L153.509 70.1843L153.403 76.6696C153.387 77.5991 153.278 78.4461 153.076 79.211C152.874 79.9755 152.569 80.6298 152.162 81.1735C151.755 81.6976 151.232 82.1064 150.591 82.3994C149.951 82.6925 149.195 82.8319 148.322 82.8176C147.147 82.7983 146.118 82.5014 145.236 81.9275C144.354 81.3534 143.761 80.4952 143.457 79.3521C143.335 79.8809 143.136 80.3947 142.863 80.893C142.589 81.3909 142.24 81.8262 141.817 82.1987C141.394 82.5524 140.906 82.8384 140.352 83.0567C139.798 83.2753 139.18 83.379 138.497 83.3676C137.644 83.3538 136.903 83.1613 136.273 82.7907C135.644 82.4201 135.125 81.937 134.718 81.3424C134.292 80.7286 133.976 80.031 133.771 79.2501C133.565 78.4689 133.469 77.6705 133.483 76.8552ZM151.202 73.7883L144.688 73.6817L144.638 76.7538C144.619 77.8725 144.918 78.7643 145.533 79.4284C146.148 80.0932 146.967 80.4338 147.991 80.4507C148.579 80.4601 149.079 80.3688 149.49 80.1764C149.901 79.9838 150.232 79.7095 150.485 79.3534C150.699 79.0345 150.861 78.6577 150.973 78.2233C151.084 77.7886 151.144 77.3156 151.153 76.8034L151.202 73.7883ZM142.441 73.6446L135.785 73.5355L135.733 76.693C135.723 77.2808 135.781 77.832 135.905 78.346C136.029 78.86 136.23 79.3189 136.509 79.7218C136.768 80.1055 137.095 80.4141 137.489 80.6483C137.884 80.8822 138.356 81.004 138.906 81.0127C139.494 81.0225 140.008 80.8981 140.448 80.6398C140.889 80.3816 141.255 80.0461 141.546 79.6335C141.818 79.2018 142.026 78.7026 142.168 78.1358C142.31 77.569 142.386 76.9918 142.395 76.404L142.441 73.6446ZM130.783 93.3381L133.163 87.4877L135.244 88.3345L134.365 90.4952C136.771 92.8865 139.144 95.2696 141.485 97.6446C143.826 100.02 146.199 102.403 148.605 104.794C145.213 104.827 141.85 104.877 138.516 104.944C135.182 105.011 131.819 105.061 128.428 105.095L127.548 107.255L125.467 106.408L127.846 100.558L129.928 101.405L129.328 102.881C130.356 102.869 131.374 102.858 132.381 102.848C133.389 102.838 134.407 102.827 135.435 102.816L137.793 97.0183L133.476 92.6825L132.865 94.1845L130.783 93.3381ZM143.004 102.178C142.447 101.583 141.855 100.989 141.226 100.396C140.597 99.802 140.026 99.2569 139.511 98.7609L137.881 102.767L142.789 102.705L143.766 102.796C143.514 102.611 143.335 102.472 143.23 102.378C143.125 102.284 143.05 102.217 143.004 102.178ZM118.017 114.586L122.913 109.745L124.493 111.344L122.935 112.883L133.776 123.849L135.333 122.309L136.913 123.907L132.422 128.347L130.842 126.749L132.096 125.509L128.196 121.564C128.09 121.456 127.99 121.342 127.896 121.22L127.617 120.857L127.693 121.702L127.443 130.109L128.192 129.369L129.772 130.967L125.28 135.407L123.7 133.809L125.38 132.149L125.629 123.702C123.592 123.448 121.568 123.202 119.558 122.963C117.548 122.723 115.524 122.477 113.487 122.224L112.031 123.664L110.451 122.066L114.942 117.626L116.522 119.224L115.47 120.264C117.185 120.461 118.888 120.666 120.576 120.876C122.265 121.087 123.967 121.305 125.682 121.53L125.756 119.096L121.256 114.544L119.597 116.184L118.017 114.586ZM93.9139 130.111L106.874 124.179L107.809 126.223L106.361 126.886L112.778 140.906L114.226 140.243L115.162 142.287L102.564 148.053L100.741 144.069L102.785 143.134L103.673 145.074L110.631 141.889L107.92 135.965L99.9264 139.624L98.991 137.58L106.984 133.921L104.214 127.868L96.8929 131.219L97.7808 133.159L95.7372 134.095L93.9139 130.111ZM76.7059 9.94112C76.3379 9.94119 76.039 9.64205 76.039 9.27404C76.0393 8.90621 76.3378 8.60755 76.7059 8.60747C108.935 8.60719 135.861 31.4985 142.097 61.8952C142.171 62.2556 141.939 62.6083 141.578 62.6822C141.217 62.7559 140.865 62.5237 140.791 62.1633C134.679 32.374 108.291 9.94072 76.7059 9.94112ZM91.8443 139.015C92.2021 138.931 92.5618 139.152 92.6469 139.51C92.732 139.868 92.5103 140.228 92.1519 140.313C87.1937 141.49 82.022 142.112 76.706 142.112C43.6051 142.112 16.0998 117.968 10.8546 86.3442C10.7943 85.9814 11.0402 85.6375 11.4035 85.5774C11.7663 85.517 12.1101 85.7634 12.1704 86.1262C17.3106 117.117 44.267 140.779 76.7059 140.779C81.916 140.779 86.9847 140.169 91.8443 139.015Z" fill="#CF2030"/>
</svg>
